<svg width="24" height="24" viewBox="0 0 24 24" fill="none" xmlns="http://www.w3.org/2000/svg">
<path d="M19.6406 7.5375L16.4906 10.5L19.4906 18.75L17.2406 21L12.7594 14.4375L10.4906 16.5V18.75L8.2406 21L6.90935 17.0719L2.9906 15.75L5.2406 13.5H7.4906L9.7406 11.25L2.9906 6.75L5.2406 4.5L13.4906 7.5L16.4625 4.35937L16.3968 4.40625C16.8195 3.98356 17.3928 3.74609 17.9906 3.74609C18.5884 3.74609 19.1617 3.98356 19.5843 4.40625C20.007 4.82894 20.2445 5.40222 20.2445 6C20.2445 6.59777 20.007 7.17106 19.5843 7.59375L19.6406 7.5375Z" stroke="#191C1F" stroke-width="1.5" stroke-linecap="round" stroke-linejoin="round"/>
</svg>
