<svg width="17" height="20" viewBox="0 0 17 20" fill="none" xmlns="http://www.w3.org/2000/svg">
<path d="M14.0102 10.534C14.0013 8.90075 14.7403 7.668 16.2361 6.76012C15.3992 5.56297 14.1348 4.90432 12.4654 4.77525C10.8849 4.65064 9.1576 5.69648 8.52542 5.69648C7.85764 5.69648 6.32618 4.81976 5.12416 4.81976C2.63999 4.85981 0 6.80018 0 10.7477C0 11.9137 0.213692 13.1182 0.641076 14.3614C1.21092 15.9947 3.26771 20 5.41353 19.9332C6.53542 19.9065 7.32786 19.1366 8.78809 19.1366C10.2038 19.1366 10.9384 19.9332 12.1894 19.9332C14.353 19.9021 16.2139 16.2617 16.757 14.6239C13.8544 13.2577 14.0102 10.6186 14.0102 10.534ZM11.4904 3.22652C12.7058 1.7846 12.5945 0.47174 12.5589 0C11.486 0.0623053 10.2439 0.729862 9.53601 1.55318C8.75692 2.43436 8.29838 3.5247 8.39632 4.753C9.55827 4.84201 10.6178 4.24566 11.4904 3.22652Z" fill="black"/>
</svg>
