<svg width="22" height="22" viewBox="0 0 22 22" fill="none" xmlns="http://www.w3.org/2000/svg">
<path d="M6.49219 10.8633C7.39258 12.7227 8.89612 14.2224 10.7578 15.118C10.8951 15.183 11.047 15.2111 11.1985 15.1996C11.35 15.1881 11.4959 15.1374 11.6219 15.0524L14.3562 13.2258C14.4771 13.1439 14.6167 13.0939 14.762 13.0805C14.9074 13.0671 15.0538 13.0907 15.1875 13.1492L20.3062 15.3477C20.4812 15.4205 20.6274 15.5488 20.7222 15.7128C20.8171 15.8769 20.8554 16.0675 20.8312 16.2555C20.669 17.5218 20.0509 18.6855 19.0927 19.529C18.1344 20.3726 16.9016 20.838 15.625 20.8383C11.6799 20.8383 7.89639 19.2711 5.10679 16.4815C2.31718 13.6919 0.75 9.90839 0.75 5.96329C0.750288 4.68666 1.21573 3.45388 2.05925 2.49562C2.90276 1.53736 4.06653 0.919281 5.33281 0.757043C5.52076 0.7329 5.71143 0.771211 5.87547 0.866076C6.03951 0.96094 6.16781 1.1071 6.24062 1.28204L8.43906 6.41173C8.49623 6.54336 8.52015 6.68703 8.5087 6.83008C8.49726 6.97314 8.45081 7.11118 8.37344 7.23204L6.54687 10.0102C6.46556 10.1358 6.41783 10.2802 6.40825 10.4296C6.39868 10.579 6.42758 10.7283 6.49219 10.8633V10.8633Z" stroke="#191C1F" stroke-width="1.5" stroke-linecap="round" stroke-linejoin="round"/>
</svg>
